<?xml version="1.0" encoding="UTF-8" standalone="no"?>
<svg
   xmlns:dc="http://purl.org/dc/elements/1.1/"
   xmlns:cc="http://creativecommons.org/ns#"
   xmlns:rdf="http://www.w3.org/1999/02/22-rdf-syntax-ns#"
   xmlns:svg="http://www.w3.org/2000/svg"
   xmlns="http://www.w3.org/2000/svg"
   xmlns:xlink="http://www.w3.org/1999/xlink"
   width="52.396801mm"
   height="59.011387mm"
   viewBox="0 0 52.396804 59.011385"
   version="1.1"
   id="svg8">
  <defs
     id="defs2"><linearGradient
   id="linearGradient8007">
  <stop
     style="stop-color:#000000;stop-opacity:0"
     offset="0"
     id="stop8003" />
  <stop
     style="stop-color:#000000;stop-opacity:0.28627452"
     offset="0.47821143"
     id="stop8011" />
  <stop
     style="stop-color:#000000;stop-opacity:0"
     offset="1"
     id="stop8005" />
</linearGradient>
<linearGradient
   id="linearGradient2870">
  <stop
     id="stop2872"
     offset="0"
     style="stop-color:#ffee00;stop-opacity:1;" />
  <stop
     id="stop2874"
     offset="1"
     style="stop-color:#ff3300;stop-opacity:1;" />
</linearGradient>
<linearGradient
   gradientUnits="userSpaceOnUse"
   y2="409.42679"
   x2="380.4288"
   y1="409.77631"
   x1="212.2251"
   id="linearGradient2876"
   xlink:href="#linearGradient2870"
   gradientTransform="matrix(0.76020117,0,0,-0.94532376,37.745498,763.20497)" />
<clipPath
   id="g">
  <path
     d="M 0,56.693 V 0 H 56.693 0.001 L 0,0.001 Z"
     id="path1521" />
</clipPath>
<linearGradient
   id="b"
   x2="1"
   gradientTransform="matrix(39.47719,-44.75383,44.75383,39.47719,15.16066,43.29451)"
   gradientUnits="userSpaceOnUse">
  <stop
     stop-color="#293bab"
     offset="0"
     id="stop1524" />
  <stop
     stop-color="#293bab"
     offset=".00072338"
     id="stop1526" />
  <stop
     stop-color="#293bab"
     offset=".01526787"
     id="stop1528" />
  <stop
     stop-color="#1e58be"
     offset="1"
     id="stop1530" />
</linearGradient>
<clipPath
   id="f">
  <path
     d="M 0,56.693 V 0.001 L 0.001,0 h 56.692 v 56.693 z"
     id="path1533" />
</clipPath>
<clipPath
   id="e">
  <path
     d="M 0,0 H 56.693 V 56.693 H 0 Z"
     id="path1536" />
</clipPath>
<clipPath
   id="d">
  <path
     d="m 39.892,28.291 c 0,-3.012 2.406,-5.42 5.568,-5.42 2.321,0 3.771,0.91 4.753,2.07 l -1.283,0.98 C 48.026,24.79 46.887,24.35 45.46,24.35 c -1.924,0 -3.497,1.37 -3.841,3.184 h 9.356 c 0.033,0.246 0.053,0.498 0.053,0.757 0,3.008 -2.408,5.418 -5.568,5.418 -3.162,0 -5.568,-2.41 -5.568,-5.418 m 5.568,3.911 c 1.937,0 3.515,-1.363 3.847,-3.194 h -7.695 c 0.331,1.831 1.911,3.194 3.848,3.194 M 16.615,28.291 c 0,-3.012 2.407,-5.42 5.568,-5.42 3.161,0 5.568,2.408 5.568,5.42 0,3.008 -2.407,5.418 -5.568,5.418 -3.161,0 -5.568,-2.41 -5.568,-5.418 m 1.655,0 c 0,2.18 1.732,3.911 3.913,3.911 2.183,0 3.913,-1.731 3.913,-3.911 0,-2.185 -1.73,-3.916 -3.913,-3.916 -2.181,0 -3.913,1.731 -3.913,3.916 m -12.595,0 c 0,-3.012 2.408,-5.42 5.569,-5.42 2.86,0 4.364,2.108 4.364,2.108 l -1.053,1.053 c 0,0 -1.129,-1.657 -3.311,-1.657 -2.183,0 -3.914,1.731 -3.914,3.916 0,2.18 1.731,3.911 3.914,3.911 2.182,0 3.235,-1.58 3.235,-1.58 l 1.054,1.053 c 0,0 -1.429,2.034 -4.289,2.034 -3.161,0 -5.569,-2.41 -5.569,-5.418 m 23.832,5.265 V 23.021 h 1.656 v 4.064 h 3.347 l 2.259,-4.064 h 1.806 l -2.409,4.214 c 0,0 2.107,0.753 2.107,3.086 0,1.805 -1.431,3.235 -3.385,3.235 z m 1.656,-1.504 h 3.725 c 0.977,0 1.729,-0.753 1.729,-1.731 0,-0.978 -0.752,-1.731 -1.729,-1.731 h -3.725 z"
     id="path1539" />
</clipPath>
<linearGradient
   id="a"
   x2="1"
   gradientTransform="matrix(0,33.82036,33.82036,0,28.35147,0.3072529)"
   gradientUnits="userSpaceOnUse">
  <stop
     stop-color="#1e58be"
     offset="0"
     id="stop1542" />
  <stop
     stop-color="#1e58be"
     offset=".00078938"
     id="stop1544" />
  <stop
     stop-color="#fff"
     offset="1"
     id="stop1546" />
</linearGradient>
<clipPath
   id="c">
  <path
     d="M 0,0 H 56.693 V 56.693 H 0 Z"
     id="path1549" />
</clipPath>
<filter
   style="color-interpolation-filters:sRGB"
   id="filter1976"
   x="-0.012511232"
   width="1.0250225"
   y="-0.054198302"
   height="1.1083966">
  <feGaussianBlur
     stdDeviation="0.17245982"
     id="feGaussianBlur1978" />
</filter>
<clipPath
   id="g-0">
  <path
     d="M 0,56.693 V 0 H 56.693 0.001 L 0,0.001 Z"
     id="path1521-0" />
</clipPath>
<linearGradient
   id="b-6"
   x2="1"
   gradientTransform="matrix(39.47719,-44.75383,44.75383,39.47719,15.16066,43.29451)"
   gradientUnits="userSpaceOnUse">
  <stop
     stop-color="#293bab"
     offset="0"
     id="stop1524-1" />
  <stop
     stop-color="#293bab"
     offset=".00072338"
     id="stop1526-7" />
  <stop
     stop-color="#293bab"
     offset=".01526787"
     id="stop1528-4" />
  <stop
     stop-color="#1e58be"
     offset="1"
     id="stop1530-4" />
</linearGradient>
<clipPath
   id="f-1">
  <path
     d="M 0,56.693 V 0.001 L 0.001,0 h 56.692 v 56.693 z"
     id="path1533-8" />
</clipPath>
<clipPath
   id="e-9">
  <path
     d="M 0,0 H 56.693 V 56.693 H 0 Z"
     id="path1536-2" />
</clipPath>
<clipPath
   id="d-4">
  <path
     d="m 39.892,28.291 c 0,-3.012 2.406,-5.42 5.568,-5.42 2.321,0 3.771,0.91 4.753,2.07 l -1.283,0.98 C 48.026,24.79 46.887,24.35 45.46,24.35 c -1.924,0 -3.497,1.37 -3.841,3.184 h 9.356 c 0.033,0.246 0.053,0.498 0.053,0.757 0,3.008 -2.408,5.418 -5.568,5.418 -3.162,0 -5.568,-2.41 -5.568,-5.418 m 5.568,3.911 c 1.937,0 3.515,-1.363 3.847,-3.194 h -7.695 c 0.331,1.831 1.911,3.194 3.848,3.194 M 16.615,28.291 c 0,-3.012 2.407,-5.42 5.568,-5.42 3.161,0 5.568,2.408 5.568,5.42 0,3.008 -2.407,5.418 -5.568,5.418 -3.161,0 -5.568,-2.41 -5.568,-5.418 m 1.655,0 c 0,2.18 1.732,3.911 3.913,3.911 2.183,0 3.913,-1.731 3.913,-3.911 0,-2.185 -1.73,-3.916 -3.913,-3.916 -2.181,0 -3.913,1.731 -3.913,3.916 m -12.595,0 c 0,-3.012 2.408,-5.42 5.569,-5.42 2.86,0 4.364,2.108 4.364,2.108 l -1.053,1.053 c 0,0 -1.129,-1.657 -3.311,-1.657 -2.183,0 -3.914,1.731 -3.914,3.916 0,2.18 1.731,3.911 3.914,3.911 2.182,0 3.235,-1.58 3.235,-1.58 l 1.054,1.053 c 0,0 -1.429,2.034 -4.289,2.034 -3.161,0 -5.569,-2.41 -5.569,-5.418 m 23.832,5.265 V 23.021 h 1.656 v 4.064 h 3.347 l 2.259,-4.064 h 1.806 l -2.409,4.214 c 0,0 2.107,0.753 2.107,3.086 0,1.805 -1.431,3.235 -3.385,3.235 z m 1.656,-1.504 h 3.725 c 0.977,0 1.729,-0.753 1.729,-1.731 0,-0.978 -0.752,-1.731 -1.729,-1.731 h -3.725 z"
     id="path1539-9" />
</clipPath>
<linearGradient
   id="a-8"
   x2="1"
   gradientTransform="matrix(0,33.82036,33.82036,0,28.35147,0.3072529)"
   gradientUnits="userSpaceOnUse">
  <stop
     stop-color="#1e58be"
     offset="0"
     id="stop1542-7" />
  <stop
     stop-color="#1e58be"
     offset=".00078938"
     id="stop1544-9" />
  <stop
     stop-color="#fff"
     offset="1"
     id="stop1546-9" />
</linearGradient>
<clipPath
   id="c-3">
  <path
     d="M 0,0 H 56.693 V 56.693 H 0 Z"
     id="path1549-2" />
</clipPath>
<filter
   style="color-interpolation-filters:sRGB"
   id="filter1976-9"
   x="-0.012511232"
   width="1.0250225"
   y="-0.054198302"
   height="1.1083966">
  <feGaussianBlur
     stdDeviation="0.17245982"
     id="feGaussianBlur1978-3" />
</filter>
<linearGradient
   id="path20_1_"
   gradientUnits="userSpaceOnUse"
   x1="318.60681"
   y1="137.85229"
   x2="318.60681"
   y2="23.755699"
   gradientTransform="matrix(0.63115808,0,0,-0.67032162,298.18793,2298.0418)">
  <stop
     offset="0"
     style="stop-color:#F51E00"
     id="stop1279" />
  <stop
     offset="1"
     style="stop-color:#A70100"
     id="stop1281" />
</linearGradient>
<linearGradient
   id="path20-6_1_"
   gradientUnits="userSpaceOnUse"
   x1="318.6051"
   y1="137.85291"
   x2="318.6051"
   y2="23.749001"
   gradientTransform="matrix(0.63115808,0,0,-0.67032162,253.80765,2078.6626)">
  <stop
     offset="0"
     style="stop-color:#F51E00"
     id="stop1285" />
  <stop
     offset="1"
     style="stop-color:#A70100"
     id="stop1287" />
</linearGradient>
<clipPath
   id="g-3">
  <path
     d="M 0,56.693 V 0 H 56.693 0.001 L 0,0.001 Z"
     id="path1521-6" />
</clipPath>
<linearGradient
   id="b-7"
   x2="1"
   gradientTransform="matrix(39.47719,-44.75383,44.75383,39.47719,15.16066,43.29451)"
   gradientUnits="userSpaceOnUse">
  <stop
     stop-color="#293bab"
     offset="0"
     id="stop1524-11" />
  <stop
     stop-color="#293bab"
     offset=".00072338"
     id="stop1526-74" />
  <stop
     stop-color="#293bab"
     offset=".01526787"
     id="stop1528-3" />
  <stop
     stop-color="#1e58be"
     offset="1"
     id="stop1530-5" />
</linearGradient>
<clipPath
   id="f-7">
  <path
     d="M 0,56.693 V 0.001 L 0.001,0 h 56.692 v 56.693 z"
     id="path1533-3" />
</clipPath>
<clipPath
   id="e-8">
  <path
     d="M 0,0 H 56.693 V 56.693 H 0 Z"
     id="path1536-4" />
</clipPath>
<clipPath
   id="d-2">
  <path
     d="m 39.892,28.291 c 0,-3.012 2.406,-5.42 5.568,-5.42 2.321,0 3.771,0.91 4.753,2.07 l -1.283,0.98 C 48.026,24.79 46.887,24.35 45.46,24.35 c -1.924,0 -3.497,1.37 -3.841,3.184 h 9.356 c 0.033,0.246 0.053,0.498 0.053,0.757 0,3.008 -2.408,5.418 -5.568,5.418 -3.162,0 -5.568,-2.41 -5.568,-5.418 m 5.568,3.911 c 1.937,0 3.515,-1.363 3.847,-3.194 h -7.695 c 0.331,1.831 1.911,3.194 3.848,3.194 M 16.615,28.291 c 0,-3.012 2.407,-5.42 5.568,-5.42 3.161,0 5.568,2.408 5.568,5.42 0,3.008 -2.407,5.418 -5.568,5.418 -3.161,0 -5.568,-2.41 -5.568,-5.418 m 1.655,0 c 0,2.18 1.732,3.911 3.913,3.911 2.183,0 3.913,-1.731 3.913,-3.911 0,-2.185 -1.73,-3.916 -3.913,-3.916 -2.181,0 -3.913,1.731 -3.913,3.916 m -12.595,0 c 0,-3.012 2.408,-5.42 5.569,-5.42 2.86,0 4.364,2.108 4.364,2.108 l -1.053,1.053 c 0,0 -1.129,-1.657 -3.311,-1.657 -2.183,0 -3.914,1.731 -3.914,3.916 0,2.18 1.731,3.911 3.914,3.911 2.182,0 3.235,-1.58 3.235,-1.58 l 1.054,1.053 c 0,0 -1.429,2.034 -4.289,2.034 -3.161,0 -5.569,-2.41 -5.569,-5.418 m 23.832,5.265 V 23.021 h 1.656 v 4.064 h 3.347 l 2.259,-4.064 h 1.806 l -2.409,4.214 c 0,0 2.107,0.753 2.107,3.086 0,1.805 -1.431,3.235 -3.385,3.235 z m 1.656,-1.504 h 3.725 c 0.977,0 1.729,-0.753 1.729,-1.731 0,-0.978 -0.752,-1.731 -1.729,-1.731 h -3.725 z"
     id="path1539-7" />
</clipPath>
<linearGradient
   id="a-9"
   x2="1"
   gradientTransform="matrix(0,33.82036,33.82036,0,28.35147,0.3072529)"
   gradientUnits="userSpaceOnUse">
  <stop
     stop-color="#1e58be"
     offset="0"
     id="stop1542-9" />
  <stop
     stop-color="#1e58be"
     offset=".00078938"
     id="stop1544-3" />
  <stop
     stop-color="#fff"
     offset="1"
     id="stop1546-2" />
</linearGradient>
<clipPath
   id="c-4">
  <path
     d="M 0,0 H 56.693 V 56.693 H 0 Z"
     id="path1549-6" />
</clipPath>
<filter
   style="color-interpolation-filters:sRGB"
   id="filter1976-8"
   x="-0.012511232"
   width="1.0250225"
   y="-0.054198302"
   height="1.1083966">
  <feGaussianBlur
     stdDeviation="0.17245982"
     id="feGaussianBlur1978-4" />
</filter>
<clipPath
   id="g-0-6">
  <path
     d="M 0,56.693 V 0 H 56.693 0.001 L 0,0.001 Z"
     id="path1521-0-0" />
</clipPath>
<linearGradient
   id="b-6-0"
   x2="1"
   gradientTransform="matrix(39.47719,-44.75383,44.75383,39.47719,15.16066,43.29451)"
   gradientUnits="userSpaceOnUse">
  <stop
     stop-color="#293bab"
     offset="0"
     id="stop1524-1-7" />
  <stop
     stop-color="#293bab"
     offset=".00072338"
     id="stop1526-7-0" />
  <stop
     stop-color="#293bab"
     offset=".01526787"
     id="stop1528-4-0" />
  <stop
     stop-color="#1e58be"
     offset="1"
     id="stop1530-4-3" />
</linearGradient>
<clipPath
   id="f-1-0">
  <path
     d="M 0,56.693 V 0.001 L 0.001,0 h 56.692 v 56.693 z"
     id="path1533-8-0" />
</clipPath>
<clipPath
   id="e-9-5">
  <path
     d="M 0,0 H 56.693 V 56.693 H 0 Z"
     id="path1536-2-4" />
</clipPath>
<clipPath
   id="d-4-6">
  <path
     d="m 39.892,28.291 c 0,-3.012 2.406,-5.42 5.568,-5.42 2.321,0 3.771,0.91 4.753,2.07 l -1.283,0.98 C 48.026,24.79 46.887,24.35 45.46,24.35 c -1.924,0 -3.497,1.37 -3.841,3.184 h 9.356 c 0.033,0.246 0.053,0.498 0.053,0.757 0,3.008 -2.408,5.418 -5.568,5.418 -3.162,0 -5.568,-2.41 -5.568,-5.418 m 5.568,3.911 c 1.937,0 3.515,-1.363 3.847,-3.194 h -7.695 c 0.331,1.831 1.911,3.194 3.848,3.194 M 16.615,28.291 c 0,-3.012 2.407,-5.42 5.568,-5.42 3.161,0 5.568,2.408 5.568,5.42 0,3.008 -2.407,5.418 -5.568,5.418 -3.161,0 -5.568,-2.41 -5.568,-5.418 m 1.655,0 c 0,2.18 1.732,3.911 3.913,3.911 2.183,0 3.913,-1.731 3.913,-3.911 0,-2.185 -1.73,-3.916 -3.913,-3.916 -2.181,0 -3.913,1.731 -3.913,3.916 m -12.595,0 c 0,-3.012 2.408,-5.42 5.569,-5.42 2.86,0 4.364,2.108 4.364,2.108 l -1.053,1.053 c 0,0 -1.129,-1.657 -3.311,-1.657 -2.183,0 -3.914,1.731 -3.914,3.916 0,2.18 1.731,3.911 3.914,3.911 2.182,0 3.235,-1.58 3.235,-1.58 l 1.054,1.053 c 0,0 -1.429,2.034 -4.289,2.034 -3.161,0 -5.569,-2.41 -5.569,-5.418 m 23.832,5.265 V 23.021 h 1.656 v 4.064 h 3.347 l 2.259,-4.064 h 1.806 l -2.409,4.214 c 0,0 2.107,0.753 2.107,3.086 0,1.805 -1.431,3.235 -3.385,3.235 z m 1.656,-1.504 h 3.725 c 0.977,0 1.729,-0.753 1.729,-1.731 0,-0.978 -0.752,-1.731 -1.729,-1.731 h -3.725 z"
     id="path1539-9-2" />
</clipPath>
<linearGradient
   id="a-8-0"
   x2="1"
   gradientTransform="matrix(0,33.82036,33.82036,0,28.35147,0.3072529)"
   gradientUnits="userSpaceOnUse">
  <stop
     stop-color="#1e58be"
     offset="0"
     id="stop1542-7-0" />
  <stop
     stop-color="#1e58be"
     offset=".00078938"
     id="stop1544-9-1" />
  <stop
     stop-color="#fff"
     offset="1"
     id="stop1546-9-2" />
</linearGradient>
<clipPath
   id="c-3-4">
  <path
     d="M 0,0 H 56.693 V 56.693 H 0 Z"
     id="path1549-2-0" />
</clipPath>
<filter
   style="color-interpolation-filters:sRGB"
   id="filter1976-9-7"
   x="-0.012511232"
   width="1.0250225"
   y="-0.054198302"
   height="1.1083966">
  <feGaussianBlur
     stdDeviation="0.17245982"
     id="feGaussianBlur1978-3-8" />
</filter>
<clipPath
   id="g-8">
  <path
     d="M 0,56.693 V 0 H 56.693 0.001 L 0,0.001 Z"
     id="path1521-4" />
</clipPath>
<linearGradient
   id="b-8"
   x2="1"
   gradientTransform="matrix(39.47719,-44.75383,44.75383,39.47719,15.16066,43.29451)"
   gradientUnits="userSpaceOnUse">
  <stop
     stop-color="#293bab"
     offset="0"
     id="stop1524-6" />
  <stop
     stop-color="#293bab"
     offset=".00072338"
     id="stop1526-5" />
  <stop
     stop-color="#293bab"
     offset=".01526787"
     id="stop1528-8" />
  <stop
     stop-color="#1e58be"
     offset="1"
     id="stop1530-1" />
</linearGradient>
<clipPath
   id="f-78">
  <path
     d="M 0,56.693 V 0.001 L 0.001,0 h 56.692 v 56.693 z"
     id="path1533-4" />
</clipPath>
<clipPath
   id="e-7">
  <path
     d="M 0,0 H 56.693 V 56.693 H 0 Z"
     id="path1536-8" />
</clipPath>
<clipPath
   id="d-7">
  <path
     d="m 39.892,28.291 c 0,-3.012 2.406,-5.42 5.568,-5.42 2.321,0 3.771,0.91 4.753,2.07 l -1.283,0.98 C 48.026,24.79 46.887,24.35 45.46,24.35 c -1.924,0 -3.497,1.37 -3.841,3.184 h 9.356 c 0.033,0.246 0.053,0.498 0.053,0.757 0,3.008 -2.408,5.418 -5.568,5.418 -3.162,0 -5.568,-2.41 -5.568,-5.418 m 5.568,3.911 c 1.937,0 3.515,-1.363 3.847,-3.194 h -7.695 c 0.331,1.831 1.911,3.194 3.848,3.194 M 16.615,28.291 c 0,-3.012 2.407,-5.42 5.568,-5.42 3.161,0 5.568,2.408 5.568,5.42 0,3.008 -2.407,5.418 -5.568,5.418 -3.161,0 -5.568,-2.41 -5.568,-5.418 m 1.655,0 c 0,2.18 1.732,3.911 3.913,3.911 2.183,0 3.913,-1.731 3.913,-3.911 0,-2.185 -1.73,-3.916 -3.913,-3.916 -2.181,0 -3.913,1.731 -3.913,3.916 m -12.595,0 c 0,-3.012 2.408,-5.42 5.569,-5.42 2.86,0 4.364,2.108 4.364,2.108 l -1.053,1.053 c 0,0 -1.129,-1.657 -3.311,-1.657 -2.183,0 -3.914,1.731 -3.914,3.916 0,2.18 1.731,3.911 3.914,3.911 2.182,0 3.235,-1.58 3.235,-1.58 l 1.054,1.053 c 0,0 -1.429,2.034 -4.289,2.034 -3.161,0 -5.569,-2.41 -5.569,-5.418 m 23.832,5.265 V 23.021 h 1.656 v 4.064 h 3.347 l 2.259,-4.064 h 1.806 l -2.409,4.214 c 0,0 2.107,0.753 2.107,3.086 0,1.805 -1.431,3.235 -3.385,3.235 z m 1.656,-1.504 h 3.725 c 0.977,0 1.729,-0.753 1.729,-1.731 0,-0.978 -0.752,-1.731 -1.729,-1.731 h -3.725 z"
     id="path1539-5" />
</clipPath>
<linearGradient
   id="a-4"
   x2="1"
   gradientTransform="matrix(0,33.82036,33.82036,0,28.35147,0.3072529)"
   gradientUnits="userSpaceOnUse">
  <stop
     stop-color="#1e58be"
     offset="0"
     id="stop1542-71" />
  <stop
     stop-color="#1e58be"
     offset=".00078938"
     id="stop1544-1" />
  <stop
     stop-color="#fff"
     offset="1"
     id="stop1546-1" />
</linearGradient>
<clipPath
   id="c-0">
  <path
     d="M 0,0 H 56.693 V 56.693 H 0 Z"
     id="path1549-21" />
</clipPath>
<filter
   style="color-interpolation-filters:sRGB"
   id="filter1976-2"
   x="-0.012511232"
   width="1.0250225"
   y="-0.054198302"
   height="1.1083966">
  <feGaussianBlur
     stdDeviation="0.17245982"
     id="feGaussianBlur1978-6" />
</filter>
<clipPath
   id="g-0-4">
  <path
     d="M 0,56.693 V 0 H 56.693 0.001 L 0,0.001 Z"
     id="path1521-0-03" />
</clipPath>
<linearGradient
   id="b-6-3"
   x2="1"
   gradientTransform="matrix(39.47719,-44.75383,44.75383,39.47719,15.16066,43.29451)"
   gradientUnits="userSpaceOnUse">
  <stop
     stop-color="#293bab"
     offset="0"
     id="stop1524-1-4" />
  <stop
     stop-color="#293bab"
     offset=".00072338"
     id="stop1526-7-7" />
  <stop
     stop-color="#293bab"
     offset=".01526787"
     id="stop1528-4-08" />
  <stop
     stop-color="#1e58be"
     offset="1"
     id="stop1530-4-1" />
</linearGradient>
<clipPath
   id="f-1-5">
  <path
     d="M 0,56.693 V 0.001 L 0.001,0 h 56.692 v 56.693 z"
     id="path1533-8-3" />
</clipPath>
<clipPath
   id="e-9-2">
  <path
     d="M 0,0 H 56.693 V 56.693 H 0 Z"
     id="path1536-2-1" />
</clipPath>
<clipPath
   id="d-4-7">
  <path
     d="m 39.892,28.291 c 0,-3.012 2.406,-5.42 5.568,-5.42 2.321,0 3.771,0.91 4.753,2.07 l -1.283,0.98 C 48.026,24.79 46.887,24.35 45.46,24.35 c -1.924,0 -3.497,1.37 -3.841,3.184 h 9.356 c 0.033,0.246 0.053,0.498 0.053,0.757 0,3.008 -2.408,5.418 -5.568,5.418 -3.162,0 -5.568,-2.41 -5.568,-5.418 m 5.568,3.911 c 1.937,0 3.515,-1.363 3.847,-3.194 h -7.695 c 0.331,1.831 1.911,3.194 3.848,3.194 M 16.615,28.291 c 0,-3.012 2.407,-5.42 5.568,-5.42 3.161,0 5.568,2.408 5.568,5.42 0,3.008 -2.407,5.418 -5.568,5.418 -3.161,0 -5.568,-2.41 -5.568,-5.418 m 1.655,0 c 0,2.18 1.732,3.911 3.913,3.911 2.183,0 3.913,-1.731 3.913,-3.911 0,-2.185 -1.73,-3.916 -3.913,-3.916 -2.181,0 -3.913,1.731 -3.913,3.916 m -12.595,0 c 0,-3.012 2.408,-5.42 5.569,-5.42 2.86,0 4.364,2.108 4.364,2.108 l -1.053,1.053 c 0,0 -1.129,-1.657 -3.311,-1.657 -2.183,0 -3.914,1.731 -3.914,3.916 0,2.18 1.731,3.911 3.914,3.911 2.182,0 3.235,-1.58 3.235,-1.58 l 1.054,1.053 c 0,0 -1.429,2.034 -4.289,2.034 -3.161,0 -5.569,-2.41 -5.569,-5.418 m 23.832,5.265 V 23.021 h 1.656 v 4.064 h 3.347 l 2.259,-4.064 h 1.806 l -2.409,4.214 c 0,0 2.107,0.753 2.107,3.086 0,1.805 -1.431,3.235 -3.385,3.235 z m 1.656,-1.504 h 3.725 c 0.977,0 1.729,-0.753 1.729,-1.731 0,-0.978 -0.752,-1.731 -1.729,-1.731 h -3.725 z"
     id="path1539-9-3" />
</clipPath>
<linearGradient
   id="a-8-02"
   x2="1"
   gradientTransform="matrix(0,33.82036,33.82036,0,28.35147,0.3072529)"
   gradientUnits="userSpaceOnUse">
  <stop
     stop-color="#1e58be"
     offset="0"
     id="stop1542-7-3" />
  <stop
     stop-color="#1e58be"
     offset=".00078938"
     id="stop1544-9-5" />
  <stop
     stop-color="#fff"
     offset="1"
     id="stop1546-9-28" />
</linearGradient>
<clipPath
   id="c-3-5">
  <path
     d="M 0,0 H 56.693 V 56.693 H 0 Z"
     id="path1549-2-7" />
</clipPath>
<filter
   style="color-interpolation-filters:sRGB"
   id="filter1976-9-3"
   x="-0.012511232"
   width="1.0250225"
   y="-0.054198302"
   height="1.1083966">
  <feGaussianBlur
     stdDeviation="0.17245982"
     id="feGaussianBlur1978-3-0" />
</filter>
<linearGradient
   xlink:href="#linearGradient8007"
   id="linearGradient8009"
   x1="322.03256"
   y1="2528.8"
   x2="960.0564"
   y2="2528.8"
   gradientUnits="userSpaceOnUse"
   gradientTransform="translate(-417.62125,-2319.3012)" />

	

	
	
	
	
	
	
	

		
		
		
		
		
		
		
		
		
		
		
	
			
		
			
		
			
		
			
		
			
		
			
		
			
		
	<linearGradient
   id="SVGID_1_"
   gradientUnits="userSpaceOnUse"
   x1="430.3364"
   y1="12.3413"
   x2="430.3364"
   y2="137.3418"
   gradientTransform="matrix(0.15277205,0,0,0.15277205,-247.88055,217.62989)">
		<stop
   offset="0"
   style="stop-color:#EFFFFF"
   id="stop1846" />

		<stop
   offset="0.25"
   style="stop-color:#EFFFFF"
   id="stop1848" />

		<stop
   offset="0.4"
   style="stop-color:#E0FFFF"
   id="stop1850" />

		<stop
   offset="0.5"
   style="stop-color:#BBFFFF"
   id="stop1852" />

		<stop
   offset="0.75"
   style="stop-color:#BBFFFF"
   id="stop1854" />

		<stop
   offset="0.9"
   style="stop-color:#87DDFF"
   id="stop1856" />

	</linearGradient>

	
	

		
		
		
		
		
		
		
		
		
		
		
	
			
			
		
	
	
	
	
	
	
	
	
	
</defs>
  <metadata
     id="metadata5">
    <rdf:RDF>
      <cc:Work
         rdf:about="">
        <dc:format>image/svg+xml</dc:format>
        <dc:type
           rdf:resource="http://purl.org/dc/dcmitype/StillImage" />
        <dc:title></dc:title>
      </cc:Work>
    </rdf:RDF>
  </metadata>
  <g
     id="layer1"
     transform="translate(236.58804,-205.39449)">
    <path
       id="path2069"
       style="fill:#f10603;fill-opacity:1;stroke:none;stroke-width:0.999999px;stroke-linecap:butt;stroke-linejoin:miter;stroke-opacity:1"
       d="M 207.32227,-46.25 42.679688,-26.011719 c 3.852661,56.311106 8.374813,112.790676 8.585937,168.191409 24.584315,3.1107 46.669273,8.71969 68.437495,14.64648 -2.63304,-23.82399 -10.54792,-47.92669 -22.222651,-72.226561 l 1.830078,-0.568359 44.796873,92.75391 c 28.56265,-9.13516 63.03483,-13.97132 96.60742,-19.46289 L 149.64258,75 l 60.17969,6.785156 25.71289,-26.96289 z m -110.937504,59.955078 38.882814,6.429688 -0.0449,6.427734 -39.462894,7.544922 z"
       transform="matrix(0.26458333,0,0,0.26458333,-247.88037,217.63147)" />
    <path
       id="path2074"
       style="fill:#ffffff;fill-opacity:1;stroke:none;stroke-width:0.999999px;stroke-linecap:butt;stroke-linejoin:miter;stroke-opacity:1"
       d="M 195.35742,-32.142578 C 146.93774,-29.959334 98.587494,-27.665544 54.822266,-18.035156 58.791374,32.481556 62.232926,81.220479 67.5,133.03516 l 34.46484,7.32226 L 85,73.75 c 9.933203,-2.496038 12.937518,-1.213998 18.03516,-1.072266 L 148.21484,158.75 211.25,148.21484 131.07227,69.822266 C 158.73353,64.826411 181.59618,68.05497 206.25,68.214844 l 15.53516,-18.03711 C 214.14231,22.737268 205.38103,-4.702112 195.35742,-32.142578 Z M 88.392578,2.2324219 C 109.28218,3.8890644 128.60361,7.896495 146.16016,14.552734 l -3.66016,20 -51.875,10.714844 C 86.553164,30.737449 88.587224,16.547156 88.392578,2.2324219 Z"
       transform="matrix(0.26458333,0,0,0.26458333,-247.88037,217.63147)" />
  </g>
  <style
     type="text/css"
     id="style6179">
	.st0{fill:#E2271E;}
	.st1{fill-rule:evenodd;clip-rule:evenodd;fill:#FEFDFD;}
	.st2{fill-rule:evenodd;clip-rule:evenodd;fill:#FEFCFC;}
	.st3{fill:none;}
	.st4{fill-rule:evenodd;clip-rule:evenodd;fill:#E2281F;}
	.st5{fill-rule:evenodd;clip-rule:evenodd;fill:#E22920;}
	.st6{fill-rule:evenodd;clip-rule:evenodd;fill:#E2271F;}
	.st7{fill-rule:evenodd;clip-rule:evenodd;fill:#E2271E;}
	.st8{fill-rule:evenodd;clip-rule:evenodd;fill:#FDF9F9;}
</style>
  <style
     type="text/css"
     id="style962">
	.st0{fill:#E42419;}
</style>
  <style
     type="text/css"
     id="style1201">
	.st0{fill:#E2271E;}
	.st1{fill-rule:evenodd;clip-rule:evenodd;fill:#FEFDFD;}
	.st2{fill-rule:evenodd;clip-rule:evenodd;fill:#FEFCFC;}
	.st3{fill:none;}
	.st4{fill-rule:evenodd;clip-rule:evenodd;fill:#E2281F;}
	.st5{fill-rule:evenodd;clip-rule:evenodd;fill:#E22920;}
	.st6{fill-rule:evenodd;clip-rule:evenodd;fill:#E2271F;}
	.st7{fill-rule:evenodd;clip-rule:evenodd;fill:#E2271E;}
	.st8{fill-rule:evenodd;clip-rule:evenodd;fill:#FDF9F9;}
</style>
  <style
     type="text/css"
     id="style1276">
	.st0{fill:url(#path20_1_);stroke:#AF030A;stroke-width:1.9;}
	.st1{fill:url(#path20-6_1_);stroke:#AF030A;stroke-width:1.9;}
	.st2{fill:#FFFFFF;stroke:#AF030A;stroke-width:1.9;}
</style>
  <style
     type="text/css"
     id="style6563">
	.st0{fill:url(#path20_1_);stroke:#AF030A;stroke-width:1.9;}
	.st1{fill:url(#path20-6_1_);stroke:#AF030A;stroke-width:1.9;}
	.st2{fill:#FFFFFF;stroke:#AF030A;stroke-width:1.9;}
</style>
  <style
     type="text/css"
     id="style6179-7">
	.st0{fill:#E2271E;}
	.st1{fill-rule:evenodd;clip-rule:evenodd;fill:#FEFDFD;}
	.st2{fill-rule:evenodd;clip-rule:evenodd;fill:#FEFCFC;}
	.st3{fill:none;}
	.st4{fill-rule:evenodd;clip-rule:evenodd;fill:#E2281F;}
	.st5{fill-rule:evenodd;clip-rule:evenodd;fill:#E22920;}
	.st6{fill-rule:evenodd;clip-rule:evenodd;fill:#E2271F;}
	.st7{fill-rule:evenodd;clip-rule:evenodd;fill:#E2271E;}
	.st8{fill-rule:evenodd;clip-rule:evenodd;fill:#FDF9F9;}
</style>
  <style
     type="text/css"
     id="style6179-1">
	.st0{fill:#E2271E;}
	.st1{fill-rule:evenodd;clip-rule:evenodd;fill:#FEFDFD;}
	.st2{fill-rule:evenodd;clip-rule:evenodd;fill:#FEFCFC;}
	.st3{fill:none;}
	.st4{fill-rule:evenodd;clip-rule:evenodd;fill:#E2281F;}
	.st5{fill-rule:evenodd;clip-rule:evenodd;fill:#E22920;}
	.st6{fill-rule:evenodd;clip-rule:evenodd;fill:#E2271F;}
	.st7{fill-rule:evenodd;clip-rule:evenodd;fill:#E2271E;}
	.st8{fill-rule:evenodd;clip-rule:evenodd;fill:#FDF9F9;}
</style>
  <style
     type="text/css"
     id="style962-1">
	.st0{fill:#E42419;}
</style>
  <style
     type="text/css"
     id="style1201-5">
	.st0{fill:#E2271E;}
	.st1{fill-rule:evenodd;clip-rule:evenodd;fill:#FEFDFD;}
	.st2{fill-rule:evenodd;clip-rule:evenodd;fill:#FEFCFC;}
	.st3{fill:none;}
	.st4{fill-rule:evenodd;clip-rule:evenodd;fill:#E2281F;}
	.st5{fill-rule:evenodd;clip-rule:evenodd;fill:#E22920;}
	.st6{fill-rule:evenodd;clip-rule:evenodd;fill:#E2271F;}
	.st7{fill-rule:evenodd;clip-rule:evenodd;fill:#E2271E;}
	.st8{fill-rule:evenodd;clip-rule:evenodd;fill:#FDF9F9;}
</style>
  <style
     type="text/css"
     id="style1276-6">
	.st0{fill:url(#path20_1_);stroke:#AF030A;stroke-width:1.9;}
	.st1{fill:url(#path20-6_1_);stroke:#AF030A;stroke-width:1.9;}
	.st2{fill:#FFFFFF;stroke:#AF030A;stroke-width:1.9;}
</style>
  <style
     type="text/css"
     id="style6563-6">
	.st0{fill:url(#path20_1_);stroke:#AF030A;stroke-width:1.9;}
	.st1{fill:url(#path20-6_1_);stroke:#AF030A;stroke-width:1.9;}
	.st2{fill:#FFFFFF;stroke:#AF030A;stroke-width:1.9;}
</style>
</svg>
